<svg xmlns="http://www.w3.org/2000/svg" width="202" height="202"><defs><clipPath id="a"><path d="M0 0h202v202H0z"/></clipPath></defs><g clip-path="url(#a)"><g data-name="Group 24"><circle data-name="Ellipse 13" cx="100" cy="100" r="100" fill="#304ffe" transform="translate(1 1)"/></g><g data-name="Group 27" transform="translate(42.938 41.802)"><g data-name="Group 26"><g data-name="Group 25"><path data-name="Path 82" d="M117.979 113.1l-16.692-21.764a57.015 57.015 0 008.441-13.664 56.558 56.558 0 000-44.058A55.09 55.09 0 0097.54 15.976 56.552 56.552 0 0079.485 4.242 58.488 58.488 0 0057.267.003h-.341a57.773 57.773 0 00-22.218 4.239 56.552 56.552 0 00-18.055 11.734A54.908 54.908 0 004.465 33.614a56.558 56.558 0 000 44.058A56.11 56.11 0 0016.577 95.31a53.986 53.986 0 0012.793 9.273l11.544-17.3a32.954 32.954 0 01-8.668-6.207 31.626 31.626 0 01-7.154-11.128 39.728 39.728 0 01-2.536-14.307 38.1 38.1 0 012.536-14.232 32.435 32.435 0 0118.055-18.433 38.449 38.449 0 0127.858 0 33.063 33.063 0 0110.9 7.305 32.323 32.323 0 017.154 11.128 41.414 41.414 0 010 28.539 30.959 30.959 0 01-7.154 11.128 32.954 32.954 0 01-8.668 6.207l29.069 37.888z" fill="#fff"/></g></g><circle data-name="Ellipse 14" cx="12.188" cy="12.188" r="12.188" transform="translate(44.701 87.737)" fill="#ffa366"/></g></g></svg>